<svg id="Layer_1" data-name="Layer 1" xmlns="http://www.w3.org/2000/svg" viewBox="0 0 1981.62 1975.19"><defs><style>.cls-1{fill:#eed09d;}.cls-2{fill:#3d3356;}.cls-3{fill:#c898ae;}.cls-4{fill:#313f76;}.cls-5{fill:#b2444f;}.cls-6{fill:#2b6360;}.cls-7{fill:#297770;}</style></defs><title>icon3</title><path class="cls-1" d="M1457.6,454.34c-6.54,12.81,1.34,29.19,13.43,37s27.09,9.15,41.43,10.31l95.41,7.73c20.21,1.64,43.65,5.23,53.62,22.9,3.07,5.44,4.53,11.85,8.64,16.57,16.51,18.95,53.4-6.86,71.32,10.77,7,6.93,7.74,17.82,10.84,27.2,4,12.09,12.59,22.89,13.19,35.62,1,22.17-29.33,38.26-47.08,24.93-3.12-2.34-6-5.41-9.84-6.11-2.94-.53-5.91.44-8.74,1.41-15,5.09-32.47,13.25-34,29-1.81,18.39,22.37,30.27,39.8,24.12s28.53-22.84,38.38-38.49" transform="translate(-180.65 -140.97)"/><path d="M1457.23,454.39c-4.38,9.33-2,19.69,3.83,27.83,6.66,9.27,17.14,14.1,28,16.57,12.77,2.9,26.15,3.27,39.16,4.32l45.72,3.71c14.42,1.17,29,1.92,43.31,3.68,10.74,1.31,21.87,3.49,31.24,9.16a35.71,35.71,0,0,1,11.25,10.46c3.45,5.09,4.85,11.22,8.2,16.35,4.27,6.53,11.15,9.37,18.72,9.83,16.66,1,39.46-9.88,53.66,2.68,9.14,8.1,9.07,22.51,13.62,33.12,4.69,10.95,12.81,22.38,11,34.92-1.5,10.16-9.47,18.32-18.64,22.26a30.9,30.9,0,0,1-16.26,2.46c-5.93-.8-10.08-3.78-14.73-7.32-3.15-2.4-6.13-3.88-10.18-3.4-4.77.56-9.91,3-14.28,4.82-8,3.41-16.43,7.94-21.47,15.32-12.68,18.56,7.09,36,25.37,36.4,23.4.56,38.66-22.93,49.62-40.31.17-.28-.55-.21-.68,0-11.79,18.69-28.93,44.45-54.68,39.22-9.4-1.9-19.22-7.92-22.09-17.58-3.31-11.07,4-20.92,12.79-26.77a74.61,74.61,0,0,1,14-7,72.18,72.18,0,0,1,7.94-2.85c7.48-2,10.72.83,15.9,4.78a26.52,26.52,0,0,0,19.52,5.14c14.31-1.7,28.79-13.37,28.87-28.65.05-11.19-6.56-21-10.89-30.88-4.18-9.55-4.53-21.08-10.42-29.83-9.5-14.11-28.7-9.66-42.82-7.82-8.63,1.12-18.65,2.37-26.5-2.31-9.5-5.67-10.33-18-17.21-26-12.53-14.44-34.23-16.29-52-17.73-32.24-2.63-64.51-5.07-96.74-7.85-14.58-1.25-31-3.15-42.36-13.38-9.19-8.3-14.49-21.71-9-33.46.1-.22-.62-.14-.73.09Z" transform="translate(-180.65 -140.97)"/><path d="M1483.28,409.8c-12.75,8.81-26.07,18.71-31.59,33.83s-2.73,32.31,4.75,46.2c7.66,14.21,20.28,25.13,33.92,33.41,14.28,8.67,30.5,16.09,47.2,18.25,15.63,2,32.09-1.39,43.79-12.42.3-.27-.41-.22-.57-.08-26.34,24.8-67.14,8.74-93.18-8.17-23.91-15.53-44.17-42.87-36.55-72.86,4.41-17.36,18.78-28.39,32.8-38.07.32-.23-.4-.2-.57-.09Z" transform="translate(-180.65 -140.97)"/><path d="M1499.79,395.29c43.58-36.61,91.86-73.1,150.84-77.06a132.35,132.35,0,0,1,82.7,21.69c12.33,8.08,23.79,17.43,35.37,26.52l36.08,28.34c5.19,4.08,10.81,8,14.8,13.39,4.78,6.43,6,14.24,4.38,22-2.64,12.88-11.55,23.86-21.16,32.42-17.8,15.86-40.72,24.35-63.15,31.33-11.13,3.47-22.37,6.59-33.5,10-12.85,4-25.32,8.85-37.93,13.49-26,9.58-52.5,13.58-79.92,8-58.3-11.87-101.89-62.7-105.47-122,0-.39-.75-.29-.73.05,3.14,52.1,37.31,99.11,86.51,117a134.58,134.58,0,0,0,77.13,4.62c15.12-3.66,29.42-9.94,44-15.18,12.23-4.38,24.73-7.94,37.18-11.62,22.71-6.71,46-13.75,65.81-27.2,17.12-11.65,41.34-36.36,30-59.14-2.67-5.36-7.22-9.45-11.8-13.15-6.26-5.07-12.67-10-19-14.95-13-10.23-26-20.56-39.12-30.67-11.87-9.15-24.17-18-37.79-24.35a123.71,123.71,0,0,0-40.9-10.9c-58.76-5.5-112,25.69-156,61.28-6.38,5.16-12.65,10.43-18.93,15.7-.38.32.2.6.49.36Z" transform="translate(-180.65 -140.97)"/><path class="cls-1" d="M1771.14,353.53c8.53-5.06,17.2-10.23,23.8-17.63s10.91-17.5,9-27.23c-2.34-12-13.11-20.34-19.31-30.9-2.28-3.9-3.88-9.06-1.23-12.72,1.25-1.73,3.24-2.76,4.71-4.3,5.34-5.59,1.58-15.67-5.21-19.36s-15-2.92-22.71-2l-33.74,3.84c-10.59,1.21-22.42,3.1-28.73,11.7" transform="translate(-180.65 -140.97)"/><path d="M1771.62,353.84c12.9-7.66,27.09-16.37,32-31.48,5.29-16.27-5.59-27.3-14.58-39.39-2.47-3.31-5.15-7-6-11.1-1.27-6.23,3.56-7.84,6.54-12,3.09-4.3,1.82-10.2-1-14.27-8.91-12.69-30.68-6.52-43.17-5.1-9.73,1.11-19.71,1.69-29.31,3.73-7.32,1.56-14.2,4.42-18.94,10.42-.56.71.81.89,1.21.39,9.76-12.36,29.72-11.57,43.93-13.19,8.14-.92,16.34-2.22,24.53-2.65,8.42-.45,18.09,1,21.9,9.6a11.52,11.52,0,0,1,.51,8.95c-1.34,3.23-4.6,4.44-6.49,7.2-3.1,4.53-.54,10.24,2,14.36,7.24,11.61,20.09,21.22,18.82,36.32-1.55,18.39-18.58,29.06-32.9,37.56-.84.5.37,1,.95.62Z" transform="translate(-180.65 -140.97)"/><path d="M1487.41,426.15c15.61,48.67,51.3,89.9,96.61,113.36a186.83,186.83,0,0,0,34.41,13.73c13.11,3.76,27.1,5.1,39.61,10.73a43.41,43.41,0,0,1,15.81,12.12c3.94,4.71,7.93,8.92,14.29,9.79,9.19,1.27,18.54-3.43,25.32-9.25,19.91-17.08,22.35-47.53,18.14-71.71,0-.15-.75,0-.72.2,3.71,21.32,2.3,46.29-11.19,64.19-8.61,11.43-27.39,23.46-40.35,11.88-4.27-3.82-7.21-8.79-11.82-12.31a52.09,52.09,0,0,0-15.78-7.82c-11.38-3.71-23.34-5.28-34.81-8.72a187.3,187.3,0,0,1-33.52-13.75,199.5,199.5,0,0,1-54.82-42.71A192.09,192.09,0,0,1,1488.14,426c-.06-.17-.78,0-.73.19Z" transform="translate(-180.65 -140.97)"/><path class="cls-2" d="M1456.07,375c-9.18,5.29-11.62,17.46-11.14,28a86,86,0,0,0,9.41,35.32" transform="translate(-180.65 -140.97)"/><path d="M1455.61,374.79c-20.24,12.72-10.39,47.06-2,63.8.27.54,1.68.09,1.45-.39a87.28,87.28,0,0,1-9.32-33.56c-.68-10.64,1-23.19,10.78-29.35.83-.52-.41-.82-.92-.5Z" transform="translate(-180.65 -140.97)"/><path d="M1808.07,462.36c-28.93-26.79-71.7-23.62-107.29-15.37-23.92,5.53-47.5,13.18-72.08,15.29a156.83,156.83,0,0,1-63.18-7.75,159.09,159.09,0,0,1-61.91-38.36c-.22-.21-.9.07-.67.31a160.66,160.66,0,0,0,106.16,46.71c45.11,1.9,86.54-20.05,131.21-21.6,24-.83,49,4.32,67.1,21.07.22.21.9-.08.66-.3Z" transform="translate(-180.65 -140.97)"/><path class="cls-1" d="M1816.89,438.79a191.36,191.36,0,0,0-100-6.81c-22.63,4.56-44.29,13.21-66.95,17.66a187.32,187.32,0,0,1-127.86-21" transform="translate(-180.65 -140.97)"/><path d="M1817.18,438.61c-36.65-12.54-75.7-13.55-113.12-3.84-20.3,5.27-40.08,12.59-60.87,15.86a185.75,185.75,0,0,1-59.71-.42,187.7,187.7,0,0,1-61.15-21.75c-.21-.12-.87.19-.57.36A189.13,189.13,0,0,0,1626,452.91c40.58-2.49,77.55-22,118.22-24.17A192.73,192.73,0,0,1,1816.6,439c.23.08.88-.25.58-.36Z" transform="translate(-180.65 -140.97)"/><path d="M1782,271.92c-36.18-2.93-72.91-5.55-109-.2a188.88,188.88,0,0,0-48.84,13.65c-17.22,7.63-32,18.77-46.42,30.74q-27.63,23-55.2,46c-.38.32.2.57.48.34l47.17-39.31c14.85-12.38,29.57-25,46.91-33.82,31.81-16.18,68.09-20.24,103.33-20.1,20.48.09,40.92,1.58,61.32,3.24.36,0,.74-.49.25-.53Z" transform="translate(-180.65 -140.97)"/><path class="cls-3" d="M2143,1402.92l9.39,19.65c-36.18,4.34-69.32-31.66-104.93-23.94-7,1.51-13.54,4.67-20.62,5.43-5.53.6-11.11-.29-16.59-1.25q-33.39-5.82-66.11-14.76c-20.06-5.47-40.12-11.93-57.74-23a125.28,125.28,0,0,1-34-181.19" transform="translate(-180.65 -140.97)"/><path class="cls-2" d="M2147.56,1365c3.29,4.58,11.33,2.13,13.62-3s.59-11.14-1.55-16.35c-17-41.42-58.12-67-86.17-102-20-24.9-33.63-55-56.87-76.86-27.33-25.77-67.11-37.67-104.1-31.15-18.93,3.33-37.9,12-48.73,27.84-15.26,22.37-10.6,53,.54,77.68,17.29,38.34,48.2,69.41,83.47,92.33s74.9,38.24,114.9,51.25c12.62,4.1,25.58,8,38.85,7.78s27.11-5.36,34.81-16.17c-2.16-13.32-12-23.89-21.39-33.58l-90.74-93.69c-33.09-34.17-70.57-70.49-118-74.29" transform="translate(-180.65 -140.97)"/><path class="cls-1" d="M1433.39,374.61a584,584,0,0,1-4.88-94.76c.4-13.53,1.33-27.29,6.15-39.94,13.67-35.82,54.13-53.21,91.64-61.17s77.86-11,109.14-33.2c3.67-2.6,8.09-5.6,12.29-4a9.82,9.82,0,0,1,4.67,4.45c14.59,25-31.62,54.91-17.82,80.35" transform="translate(-180.65 -140.97)"/><path d="M1433.75,374.52q-3.87-29.32-4.85-58.91c-.6-19.15-1.16-39,1.66-58,2.41-16.29,9.1-30.94,20.64-42.78,10.39-10.66,23.43-18.43,37-24.26,30-12.85,62.74-15.28,94.19-22.83,14.57-3.49,29-8.11,42.19-15.31q5-2.75,9.75-6a35.79,35.79,0,0,1,5.22-3.42c4.86-2.18,9.66-1.47,12.45,3a21.48,21.48,0,0,1,2.67,14c-1.59,12.41-10,23.26-15.81,34-5.39,10-10.29,21.48-4.68,32.41.09.17.78-.08.72-.2-5.58-10.88-.7-22.42,4.68-32.34,5.57-10.26,13.22-20.4,15.49-32.08,1.44-7.42-.92-22.85-11.65-20.65a20.59,20.59,0,0,0-7,3.47c-4.05,2.7-8,5.4-12.29,7.74a146.21,146.21,0,0,1-26.77,11.08c-32.34,10-66.72,11.55-98.73,22.83-26.36,9.28-52.88,25.36-63.81,52.37-8.1,20-7.12,43.35-6.9,64.54a593.67,593.67,0,0,0,5.1,71.5c0,.14.75,0,.73-.19Z" transform="translate(-180.65 -140.97)"/><path d="M1766,487c12.27,11.06,27.33,25,24.85,43.28-1,7.7-5.18,15.59-12.59,18.84-5.12,2.24-12.52.54-15.33,6.62s0,13.58-2.29,20c-2.66,7.4-8.77,12.92-15.22,17.07-7.68,4.95-16.34,8.21-24.94,11.15a131.17,131.17,0,0,1-29.22,6.87c-20.2,2-37.74-4.63-54.59-15.19-14.53-9.1-28.19-19.38-44.07-26.11a141.8,141.8,0,0,0-50.95-11.11c-19.19-.57-38.93,5.72-57.93,1.75-19.25-4-33.23-20.3-39.58-38.23-7.57-21.35-4.77-44.72-.7-66.49.07-.37-.67-.28-.74,0-6.4,34.25-8,79.33,26.6,99.73,16.23,9.58,34.85,6.34,52.62,4.54a143.15,143.15,0,0,1,63.67,7.67c34.79,12.69,61.67,46.24,101.11,44.29,18-.89,37-6.75,52.93-15,12.7-6.53,23.41-16.21,23.06-31.4a36,36,0,0,1,.16-6.65c.85-5.1,4.4-6.87,9.21-7.6a22.35,22.35,0,0,0,8.73-2.7c5.75-3.48,9.18-9.85,10.48-16.29,3.85-19.13-11.86-34-24.72-45.56-.25-.22-.87.14-.55.43Z" transform="translate(-180.65 -140.97)"/><path class="cls-4" d="M1428.23,365c.72,24.69-20.87,44.89-43.89,53.85S1336,429,1312.39,436.24c-47.63,14.53-85.25,52.61-109.82,95.93s-37.77,92-50.73,140.08l-55.29,205.17-1.48,6.24A7406.57,7406.57,0,0,0,1145,2116.16l-56.37-49.83a3032.59,3032.59,0,0,0,10.12-1045.42l-2.15-38.53c-8.46-122.12,109-406.37,186.83-500.86,4.61-5.6,9.53-11.24,16-14.5,7.13-3.58,15.4-3.89,23.38-4.14,40.41-1.25,106.41-3.71,135.84,24" transform="translate(-180.65 -140.97)"/><path class="cls-4" d="M1059.92,1457.37c-80.05-57.52-292-109.9-398.11-103.4-38.86,2.38-78.57,4.92-114.3,17.67-27,9.61-50.51,24.66-72.13,41-73.25,55.31-127.48,127.42-154.87,206l-4.06,1.72c35.62-64.21,126.8-108.74,209.84-90.62,27.29,6,52.05,17.83,78.32,26.33,73.16,23.68,155,20.38,232.76,10.55,38-4.81,76.4-11.29,110-26.61s62.16-40.8,69.46-71.78" transform="translate(-180.65 -140.97)"/><path class="cls-1" d="M1079,1349.93c-57.35-88.62-176.61-112.26-282.13-109.76-49.09,1.16-98.26,6.25-145.84,18.41C546.85,1285.21,454,1344.7,369.42,1411.19c-27.61,21.71-55.15,44.62-87.81,57.57s-72.18,14.35-101-5.81c46.49,1.65,90.22-21.19,129-46.87,90.89-60.18,170.59-140.33,272.66-178.58,81.08-30.39,169.71-31.73,256.29-32.44,74.74-.61,157.87,2.19,211.28,54.48,41.81,40.92,54.58,102.26,65.36,159.76" transform="translate(-180.65 -140.97)"/><path class="cls-5" d="M1323.71,803.43c29.82,54.94,59.85,110.38,77.57,170.33s22.44,125.52,1.5,184.42c-31.71,89.16-117.06,151.69-146.55,241.61-19.29,58.84-12.41,122.63-18.49,184.25A438.62,438.62,0,0,1,1139,1820c61.47-67.63,112.62-149.27,122.66-240.1,7.88-71.26-9.5-146.61,17.21-213.14,24-59.89,79.36-101,114.71-155,45.57-69.6,55.36-159.21,35.54-240s-67.26-153.06-126.55-211.4a107.08,107.08,0,0,0,17.63,46" transform="translate(-180.65 -140.97)"/><path class="cls-6" d="M1009.77,2021.8c10-41.21,38.55-74.92,59.07-112,25.75-46.55,38.9-98.84,51.78-150.46,30.73-123.09,61.49-246.34,82.29-371.49,10.29-62,18.21-124.67,37.38-184.47a511.38,511.38,0,0,1,135.61-215c49.86-47,111.47-84.48,179.45-92.88s142.38,16.69,181.27,73.08c15.7,22.78,25,49.24,34.19,75.35l30.31,86.44c11.66,33.25,55.11,41.11,77.68,14.06l12.73-15.26c-8,13.7-27.37,17.36-42.18,11.65s-25.69-18.54-34.27-31.9c-25.24-39.32-35.84-86.62-61-126-49.94-78.31-153.48-112.38-244.64-94.62s-169.17,80.2-222.2,156.45-83.75,165.69-107.8,255.4a2090.41,2090.41,0,0,0-68,423.86c-6.71,119.36-5,246-66.77,348.33" transform="translate(-180.65 -140.97)"/><path class="cls-7" d="M1126.7,1950.66c-20.35-109,21.51-226.78,67.84-329.32,36.13-80,79.38-161.89,143.82-202.73,68.49-43.42,149.46-32.7,217-78.82,66.58-45.45,106.59-136.11,142.37-221.22-23.09,107.17-4.42,224.87-47.52,323.3-44.75,102.21-142.94,149-231.36,154-35.95,2-72.76-.95-107.35,15.36-49.34,23.25-84.65,80.85-116.79,135.33-39.54,67-81.15,141.74-79.43,222.13" transform="translate(-180.65 -140.97)"/><path class="cls-5" d="M1080.79,1432.45c15.35,46.14-7.46,98.19-43.61,130.71s-83.34,49.48-129.52,64.7c-42.22,13.92-84.94,27.08-128.95,33.38s-89.65,5.51-132-8.07c-12.65-4.06-25.05-9.26-38.21-11.09-14.73-2-29.77.26-44.11,4.2-18.94,5.19-37.45,13.47-51.71,27a179.32,179.32,0,0,1,74.52-40.85c70.78-18.89,145.63,6.95,218.75,2.47,33.45-2.05,66.15-10.43,98.61-18.78,28-7.21,56.44-14.58,81.42-29.16,34.08-19.89,59.35-51.77,81.71-84.28,10.48-15.23,20.88-32,20.54-50.5" transform="translate(-180.65 -140.97)"/><path d="M1488.21,396.12c-2.91-11.49,2.36-22.06,9.17-31.07s14.9-17.06,22.77-25c16.35-16.54,34-29.4,55.87-37.74s44-16,65.65-25.21q16.66-7.06,33-14.75c5.11-2.4,14.52-5.72,15.1-12.55.67-7.84-12.16-11-17.6-12.66-9.89-3-20.26-4.17-30.56-4.47a180.89,180.89,0,0,0-56.76,7.64c-36.5,10.86-69.7,32.26-95.5,60.16-7.36,8-15,16.92-17.59,27.7-1.3,5.29-.8,10.1.54,15.33.62,2.45,1.53,5.29.93,7.85-.87,3.67-4.91,4.29-7.89,5.64-6.38,2.89-8.23,10.6-6.51,16.94,2.53,9.36,12.24,14.45,20.17,18.61.2.11.87-.19.58-.35-7.89-4.13-17.5-9.15-20-18.45a16.19,16.19,0,0,1,1.26-12.09c2.79-4.76,7.75-3.9,11.24-7.11,4.83-4.43.05-12.6-.34-17.87-.81-10.78,5.35-20.74,11.86-28.81,24.34-30.22,59.32-53.44,96.05-65.53a182,182,0,0,1,56.92-9.33c10.65,0,21.42.88,31.76,3.57,7.84,2,29.27,8.61,16.91,19.49-4,3.5-9.53,5.4-14.28,7.61q-8.21,3.81-16.47,7.47-15.26,6.72-30.72,12.92c-19.7,7.88-40.32,13.92-59.61,22.76-19.52,8.94-35.27,23.23-50,38.64-12.61,13.24-31.91,30.48-26.73,50.88.06.25.79.06.72-.19Z" transform="translate(-180.65 -140.97)"/><path class="cls-3" d="M1891.53,1143.24c37.77,10.8,79.42,9.68,113.76,28.76,13.29,7.39,24.87,17.52,35.53,28.38,44.5,45.32,74.74,106.91,73.3,170.41a104,104,0,0,0-30.41-42.48c-5.21-4.33-10.87-8.17-15.45-13.16-16.4-17.83-15.35-45.05-22.65-68.16-9.31-29.49-33-52.72-59.88-68s-57.06-23.6-86.89-31.77" transform="translate(-180.65 -140.97)"/></svg>