<svg id="Layer_1" data-name="Layer 1" xmlns="http://www.w3.org/2000/svg" viewBox="0 0 1258.61 1012.39"><defs><style>.cls-1{fill:#838bc5;}.cls-2{fill:#65c8d0;}</style></defs><title>icon</title><path class="cls-1" d="M1822.72,1419.34c163-129.44,404.85-149.67,587.11-49.11,22.77,12.57,46.19,28.79,54,53.6,11.72,37.48-17.22,75.21-47.89,99.71-139.73,111.63-361.86,101.6-490.94-22.18-17.77,61.65-8.91,127.31-4.41,191.31s3.38,132.35-30.85,186.61-112.49,85.13-165.12,48.44c-67.58-47.12-42.31-154.39,5.79-221.28s115.15-131.93,112.22-214.26" transform="translate(-1207.83 -931.31)"/><path class="cls-2" d="M1791.31,1333.22c-21.4-115.3-84.91-222.3-175.87-296.31-51.94-42.26-136.3-70.48-179.74-19.53-27.08,31.76-22.46,81.53-.53,117s57.45,60.06,91.94,83.55l153.52,104.55c17.56,12,36.77,26.52,39.16,47.63,3.57,31.65-31.73,52.72-62.34,61.52-151.7,43.65-337.78,7.87-449.62,119.28,50.72,79.13,157.91,109.8,249.29,87.79s167.09-88.14,220.71-165.34" transform="translate(-1207.83 -931.31)"/><path class="cls-2" d="M1929.68,931.31c23.49,107.7-1.78,225.07-67.51,313.57,46.13-89,56-196.06,26.92-292" transform="translate(-1207.83 -931.31)"/><path class="cls-1" d="M1883.23,1329.9c77-112.29,201.24-191.08,335.65-212.93a1221.67,1221.67,0,0,0-352.63,200.5" transform="translate(-1207.83 -931.31)"/></svg>